<svg width="60" height="60" viewBox="0 0 60 60" fill="none" xmlns="http://www.w3.org/2000/svg">
<path d="M29.988 18C23.367 18 18 23.367 18 29.987C18 35.066 21.158 39.404 25.618 41.149C25.513 40.2 25.419 38.746 25.659 37.71C25.878 36.773 27.065 31.753 27.065 31.753C27.065 31.753 26.706 31.033 26.706 29.972C26.706 28.309 27.673 27.061 28.874 27.061C29.898 27.061 30.392 27.83 30.392 28.749C30.392 29.778 29.739 31.316 29.4 32.741C29.115 33.934 30 34.906 31.175 34.906C33.303 34.906 34.943 32.661 34.943 29.419C34.943 26.558 32.88 24.55 29.935 24.55C26.525 24.55 24.526 27.112 24.526 29.749C24.526 30.782 24.92 31.892 25.415 32.49C25.514 32.61 25.527 32.715 25.5 32.835C25.41 33.21 25.207 34.034 25.166 34.198C25.113 34.423 24.994 34.469 24.765 34.363C23.27 33.673 22.332 31.485 22.332 29.717C22.332 25.941 25.08 22.465 30.252 22.465C34.41 22.465 37.644 25.432 37.644 29.388C37.644 33.523 35.037 36.85 31.411 36.85C30.197 36.85 29.057 36.221 28.653 35.471L27.904 38.319C27.635 39.364 26.9 40.671 26.406 41.465C27.529 41.81 28.712 42 29.956 42C36.563 42 41.941 36.635 41.941 30.013C41.941 23.39 36.563 18.026 29.956 18.026L29.988 18Z" fill="#9DB0D1"/>
</svg>
